# xmcd
#
# Track frame offsets:
#	150
#	12603
#	29173
#	45065
#	57968
#	71425
#	86993
#	103073
#	118374
#	139897
#	155922
#	169645
#
# Disc length: 2395 seconds
#
# Revision: 1
# Processed by: cddbd v1.5.2PL0 Copyright (c) Steve Scherf et al.
# Submitted via: audiograbber 1.83.01
#
DISCID=ae09590c
DTITLE=Jim Lauderdale - London Sessions
DYEAR=2017
DGENRE=Country
TTITLE0=Sweet Time
TTITLE1=I Love You More
TTITLE2=We've Only Got So Much Time Here
TTITLE3=You Came to Get Me
TTITLE4=What Have You Got to Lose
TTITLE5=If I Can't Resist
TTITLE6=Don't Let Yourself Get in the Way
TTITLE7=No Right Way to Be Wrong
TTITLE8=Different Kind of Groove Some Time
TTITLE9=I Can't Do Without You
TTITLE10=Don't Shut Me Down
TTITLE11=This is a Door
EXTD=
EXTT0=
EXTT1=
EXTT2=
EXTT3=
EXTT4=
EXTT5=
EXTT6=
EXTT7=
EXTT8=
EXTT9=
EXTT10=
EXTT11=
PLAYORDER=
